<svg width="680" height="398" viewBox="0 0 680 398" fill="none" xmlns="http://www.w3.org/2000/svg">
<g clip-path="url(#clip0_61_484)">
<path d="M188.068 57H100.931C88.2661 57 77.9995 68.4938 77.9995 82.672V222.328C77.9995 236.506 88.2661 248 100.931 248H188.068C200.733 248 211 236.506 211 222.328V82.672C211 68.4938 200.733 57 188.068 57Z" fill="#28A263"/>
<path d="M137.313 210H138.866V225H137.313V210.115V210ZM138.348 223.397C137.416 223.397 136.691 223.282 136.07 222.939C135.497 222.612 135.001 222.141 134.621 221.565C134.207 220.992 134 220.305 134 219.504H135.76C135.76 220.191 136.07 220.649 136.484 221.221C137.002 221.565 137.623 221.794 138.451 221.794C139.031 221.815 139.605 221.657 140.108 221.336C140.522 221.107 140.729 220.649 140.729 220.191C140.729 219.733 140.626 219.389 140.315 219.046C140.108 218.817 139.59 218.588 138.866 218.473L137.209 218.015C136.174 217.786 135.449 217.443 134.931 216.87C134.517 216.412 134.31 215.725 134.31 214.924C134.31 214.237 134.414 213.779 134.828 213.206C135.172 212.694 135.638 212.297 136.174 212.061C136.691 211.718 137.416 211.603 138.141 211.603C138.829 211.61 139.506 211.807 140.108 212.176C140.648 212.51 141.109 212.981 141.454 213.55C141.868 214.122 142.075 214.695 142.075 215.267H140.419C140.389 214.882 140.243 214.519 140.004 214.237C139.785 213.934 139.5 213.697 139.176 213.55C138.782 213.374 138.358 213.295 137.934 213.321C137.416 213.321 136.898 213.435 136.484 213.779C136.313 213.901 136.175 214.072 136.084 214.273C135.993 214.474 135.953 214.699 135.967 214.924C135.967 215.267 136.07 215.611 136.381 215.84L137.83 216.527L139.59 217.099C140.522 217.328 141.143 217.672 141.661 218.244C141.972 218.702 142.282 219.389 142.282 220.191C142.282 220.878 142.075 221.45 141.765 221.908C141.454 222.366 140.936 222.71 140.419 223.053C139.797 223.282 139.073 223.397 138.348 223.397ZM145.595 211.947H147.045V223.168H145.492V211.832L145.595 211.947ZM143.214 213.664H143.628C144.249 213.664 144.663 213.55 145.078 213.206C145.388 212.863 145.595 212.405 145.595 211.947H146.32C146.32 212.634 146.216 213.206 146.009 213.779C145.815 214.289 145.481 214.718 145.053 215.006C144.626 215.294 144.127 215.425 143.628 215.382H143.214V213.664ZM152.843 223.397C152.053 223.422 151.277 223.17 150.626 222.676C149.974 222.182 149.482 221.472 149.219 220.649C148.899 219.658 148.758 218.608 148.805 217.557C148.805 216.412 148.908 215.267 149.219 214.466C149.511 213.638 150.015 212.922 150.668 212.405C151.29 211.832 152.014 211.603 152.843 211.603C153.671 211.603 154.396 211.832 155.017 212.405C155.638 212.863 156.052 213.55 156.466 214.351C157.177 216.377 157.177 218.623 156.466 220.649C156.174 221.477 155.671 222.193 155.017 222.71C154.396 223.168 153.671 223.397 152.946 223.397H152.843ZM152.843 221.794C153.36 221.794 153.878 221.565 154.189 221.221C154.603 220.878 154.81 220.42 155.017 219.733C155.237 218.994 155.342 218.22 155.327 217.443C155.327 216.641 155.327 215.84 155.017 215.153C154.81 214.58 154.603 214.122 154.189 213.779C153.816 213.416 153.339 213.212 152.843 213.206C152.346 213.212 151.869 213.416 151.497 213.779C151.186 214.122 150.876 214.58 150.668 215.267C150.448 216.006 150.343 216.78 150.358 217.557C150.358 218.359 150.358 219.16 150.668 219.847C150.876 220.42 151.186 220.992 151.497 221.221C151.911 221.565 152.325 221.794 152.843 221.794Z" fill="white"/>
</g>
<g clip-path="url(#clip1_61_484)">
<path d="M285.568 57H195.43C183.594 57 173.999 67.7353 173.999 80.9779V224.022C173.999 237.265 183.594 248 195.43 248H285.568C297.404 248 306.999 237.265 306.999 224.022V80.9779C306.999 67.7353 297.404 57 285.568 57Z" fill="#4CB57F"/>
<path d="M231.703 225H233.119V223.397C235.298 223.168 236.715 222.023 236.715 220.305C236.715 218.588 235.734 217.672 233.991 217.099L233.119 216.87V213.321C234.209 213.55 234.863 214.351 234.972 215.267H236.606C236.497 213.55 234.972 212.061 233.119 211.718V210H231.703V211.718C229.742 211.947 228.435 213.092 228.435 214.809C228.435 216.527 229.306 217.443 231.485 217.901H231.703V221.794C230.614 221.45 229.851 220.649 229.851 219.504H227.999C228.108 221.565 229.415 222.939 231.594 223.282V225H231.703ZM229.96 214.809C229.96 213.893 230.723 213.321 231.703 213.206V216.412C230.614 216.069 229.96 215.611 229.96 214.809ZM233.228 221.908V218.359C234.863 218.817 235.298 219.389 235.298 220.191C235.298 221.107 234.427 221.794 233.119 221.908H233.228ZM238.022 221.45V223.168H245.649V221.679H240.201C243.905 219.389 245.649 217.328 245.649 215.267C245.649 213.092 244.123 211.603 241.835 211.603C239.656 211.603 238.022 213.206 237.913 215.382H239.547C239.547 214.008 240.528 213.092 241.835 213.092C243.143 213.092 244.014 213.893 244.014 215.267C244.014 216.87 242.38 218.702 238.022 221.45ZM251.641 223.397C254.256 223.397 255.999 221.107 255.999 217.443C255.999 213.893 254.256 211.718 251.641 211.718C249.026 211.718 247.392 213.893 247.392 217.443C247.392 221.107 249.026 223.397 251.75 223.397H251.641ZM248.917 217.557C248.917 214.809 250.007 213.092 251.641 213.092C253.384 213.092 254.365 214.809 254.365 217.443C254.365 220.191 253.275 221.908 251.641 221.908C250.007 221.908 248.917 220.191 248.917 217.557Z" fill="white"/>
</g>
<g clip-path="url(#clip2_61_484)">
<path d="M380.068 57H292.93C280.266 57 269.999 68.4938 269.999 82.672V222.328C269.999 236.506 280.266 248 292.93 248H380.068C392.732 248 402.999 236.506 402.999 222.328V82.672C402.999 68.4938 392.732 57 380.068 57Z" fill="#66DEA2"/>
<path d="M327.462 209.173H328.838V224.356H327.462V209.289V209.173ZM328.288 222.733C327.554 222.733 326.912 222.618 326.362 222.27C325.823 221.978 325.362 221.493 325.036 220.876C324.711 220.259 324.534 219.535 324.528 218.793H326.087C326.087 219.488 326.27 219.952 326.729 220.531C327.187 220.879 327.646 221.111 328.379 221.111C328.893 221.133 329.401 220.972 329.846 220.647C330.305 220.415 330.488 219.952 330.488 219.488C330.488 219.025 330.305 218.677 330.121 218.329C329.846 218.097 329.48 217.866 328.838 217.75L327.279 217.286C326.362 217.054 325.72 216.707 325.354 216.127C324.984 215.634 324.763 214.993 324.73 214.315C324.696 213.637 324.852 212.965 325.17 212.418C325.475 211.899 325.887 211.498 326.362 211.259C326.912 210.911 327.462 210.795 328.196 210.795C328.775 210.821 329.34 211.02 329.846 211.375C330.358 211.698 330.799 212.176 331.13 212.766L331.68 214.504H330.121C330.096 214.114 329.966 213.747 329.755 213.461C329.561 213.155 329.308 212.915 329.021 212.766C328.701 212.604 328.358 212.525 328.013 212.534C327.462 212.534 327.096 212.65 326.729 212.998C326.56 213.106 326.42 213.272 326.322 213.477C326.225 213.682 326.175 213.918 326.179 214.157C326.179 214.504 326.362 214.852 326.545 215.084L327.829 215.779L329.48 216.359C330.213 216.591 330.855 216.938 331.222 217.518C331.588 217.981 331.772 218.677 331.772 219.488C331.772 220.184 331.68 220.763 331.313 221.227C331.038 221.69 330.672 222.038 330.121 222.386C329.53 222.632 328.91 222.75 328.288 222.733ZM332.872 218.677L335.623 211.027H336.998L334.156 219.14L333.606 218.677H339.749V220.3H332.872V218.677ZM336.998 215.663H338.373V222.502H336.998V215.663ZM344.333 222.618C343.661 222.628 343.002 222.378 342.445 221.901C341.887 221.425 341.459 220.745 341.216 219.952C340.901 218.957 340.745 217.894 340.757 216.822C340.757 215.663 340.941 214.504 341.216 213.693C341.475 212.855 341.921 212.13 342.499 211.607C343.05 211.027 343.691 210.795 344.333 210.795C344.975 210.795 345.8 211.027 346.259 211.607C346.824 212.099 347.269 212.781 347.542 213.577C348.172 215.628 348.172 217.901 347.542 219.952C347.284 220.79 346.838 221.515 346.259 222.038C345.8 222.502 345.158 222.733 344.425 222.733L344.333 222.618ZM344.333 221.111C344.883 221.111 345.25 220.879 345.525 220.531C345.892 220.184 346.167 219.72 346.35 219.025C346.545 218.277 346.638 217.493 346.626 216.707C346.626 215.895 346.534 215.084 346.35 214.388C346.167 213.809 345.892 213.345 345.525 212.998C345.22 212.655 344.833 212.451 344.425 212.418C343.986 212.425 343.563 212.63 343.233 212.998C342.866 213.345 342.591 213.809 342.408 214.504C342.213 215.252 342.12 216.036 342.133 216.822C342.133 217.634 342.224 218.445 342.408 219.14C342.591 219.72 342.866 220.3 343.233 220.531C343.508 220.879 343.967 221.111 344.425 221.111H344.333Z" fill="white"/>
</g>
<g clip-path="url(#clip3_61_484)">
<path d="M476.069 57H388.931C376.267 57 366 68.4938 366 82.672V222.328C366 236.506 376.267 248 388.931 248H476.069C488.734 248 499 236.506 499 222.328V82.672C499 68.4938 488.734 57 476.069 57Z" fill="#2BB970"/>
<path d="M422.975 208H424.37V221H422.975V208.099V208ZM423.812 219.611C423.068 219.611 422.417 219.511 421.86 219.214C421.313 218.964 420.846 218.549 420.515 218.02C420.185 217.492 420.006 216.872 420 216.237H421.581C421.581 216.832 421.767 217.229 422.232 217.725C422.696 218.023 423.161 218.221 423.905 218.221C424.457 218.259 425.007 218.121 425.485 217.824C425.857 217.626 426.043 217.229 426.043 216.832C426.043 216.435 425.857 216.137 425.671 215.84C425.392 215.641 425.021 215.443 424.37 215.344L422.882 214.947C421.953 214.748 421.209 214.45 420.837 213.954C420.465 213.557 420.279 212.962 420.279 212.267C420.279 211.672 420.372 211.275 420.651 210.779C420.96 210.334 421.378 209.991 421.86 209.786C422.417 209.489 422.975 209.389 423.719 209.389C424.306 209.411 424.879 209.581 425.392 209.885C425.911 210.162 426.358 210.571 426.694 211.076C427.066 211.573 427.159 212.069 427.252 212.565H425.671C425.645 212.231 425.514 211.916 425.299 211.672C425.103 211.409 424.847 211.204 424.556 211.076C424.231 210.937 423.883 210.87 423.533 210.878C422.975 210.878 422.603 210.977 422.232 211.275C422.061 211.368 421.918 211.51 421.819 211.686C421.721 211.861 421.67 212.063 421.674 212.267C421.674 212.565 421.86 212.863 422.046 213.061L423.347 213.656L425.021 214.153C425.764 214.351 426.415 214.649 426.787 215.145C427.159 215.542 427.345 216.137 427.345 216.832C427.345 217.427 427.252 217.924 426.88 218.321C426.601 218.718 426.229 219.015 425.671 219.313C425.207 219.511 424.556 219.611 423.812 219.611ZM431.807 219.611C431.157 219.611 430.506 219.511 429.948 219.214C429.501 218.994 429.116 218.652 428.832 218.221C428.522 217.722 428.36 217.134 428.367 216.534H429.855C429.855 217.031 430.041 217.527 430.413 217.725C430.785 218.023 431.25 218.221 431.807 218.221C432.179 218.221 432.551 218.221 432.737 218.023C433.109 217.924 433.388 217.725 433.481 217.427C433.667 217.229 433.76 216.931 433.76 216.634C433.76 216.137 433.481 215.641 433.109 215.443C432.54 215.107 431.899 214.936 431.25 214.947V213.656C431.621 213.656 431.993 213.656 432.365 213.458L433.109 212.962L433.295 212.168C433.295 211.771 433.202 211.473 432.923 211.176C432.644 210.977 432.272 210.779 431.807 210.779C431.342 210.779 430.878 210.977 430.599 211.176C430.44 211.283 430.307 211.429 430.21 211.601C430.113 211.774 430.055 211.968 430.041 212.168H428.739C428.737 211.676 428.866 211.194 429.111 210.779C429.394 210.348 429.779 210.006 430.227 209.786C430.709 209.553 431.232 209.433 431.761 209.433C432.29 209.433 432.813 209.553 433.295 209.786C433.76 209.985 434.132 210.382 434.41 210.779C434.596 211.176 434.782 211.672 434.782 212.168L434.503 213.359C434.308 213.709 434.015 213.986 433.667 214.153C433.29 214.347 432.877 214.449 432.458 214.45V213.954C432.979 213.936 433.494 214.073 433.946 214.351C434.318 214.55 434.596 214.847 434.875 215.244C435.061 215.641 435.154 216.137 435.154 216.634C435.172 217.19 435.043 217.74 434.782 218.221C434.503 218.618 434.039 219.015 433.574 219.214C432.997 219.515 432.356 219.652 431.714 219.611H431.807ZM440.361 219.611C439.652 219.633 438.955 219.414 438.37 218.986C437.785 218.558 437.343 217.943 437.107 217.229C436.787 216.377 436.629 215.467 436.642 214.55C436.642 213.557 436.828 212.565 437.107 211.87C437.369 211.153 437.821 210.532 438.408 210.084C438.966 209.588 439.617 209.389 440.268 209.389C440.918 209.389 441.755 209.588 442.22 210.084C442.793 210.505 443.244 211.09 443.521 211.771C444.16 213.527 444.16 215.473 443.521 217.229C443.259 217.947 442.807 218.567 442.22 219.015C441.755 219.412 441.104 219.611 440.361 219.611ZM440.361 218.221C440.732 218.221 441.197 218.023 441.476 217.725C441.848 217.427 442.127 217.031 442.313 216.435C442.51 215.795 442.605 215.124 442.592 214.45C442.592 213.756 442.499 213.061 442.313 212.466C442.127 211.969 441.848 211.573 441.476 211.275C441.166 210.981 440.774 210.807 440.361 210.779C439.915 210.784 439.486 210.96 439.152 211.275C438.78 211.573 438.501 211.969 438.315 212.565C438.118 213.205 438.023 213.876 438.036 214.55C438.036 215.244 438.129 215.939 438.315 216.534C438.501 217.031 438.78 217.527 439.152 217.725C439.431 218.023 439.896 218.221 440.361 218.221Z" fill="white"/>
</g>
<g clip-path="url(#clip4_61_484)">
<path d="M573.55 57H483.449C471.603 57 462 67.7454 462 81.0004V224C462 237.255 471.603 248 483.449 248H573.55C585.396 248 595 237.255 595 224V81.0004C595 67.7454 585.396 57 573.55 57Z" fill="#28A263"/>
<path fill-rule="evenodd" clip-rule="evenodd" d="M528.541 82.4366C520.554 82.4366 514.079 90.6228 514.079 100.718C514.079 110.814 520.554 118.999 528.541 118.999C536.529 118.999 543.004 110.814 543.004 100.718C543.004 90.6228 536.529 82.4366 528.541 82.4366ZM512.013 100.719C512.013 89.181 519.413 79.8276 528.542 79.8276C537.671 79.8276 545.071 89.181 545.071 100.719C545.071 112.258 537.671 121.612 528.542 121.612C519.414 121.612 512.013 112.258 512.013 100.719ZM524.493 94.2008C525.203 93.3524 526.144 92.8811 527.122 92.8841H527.51V87.6604H529.575V92.8841H530.005C530.74 92.9211 531.452 93.2253 532.055 93.7603L532.899 94.5137L531.707 96.6475L530.864 95.8941C530.591 95.6536 530.27 95.5153 529.938 95.4954H527.121C526.66 95.4954 526.228 95.7156 525.916 96.0911C525.768 96.2657 525.65 96.4767 525.568 96.711C525.487 96.9454 525.444 97.1982 525.443 97.4542C525.443 97.9525 525.606 98.444 525.916 98.8172C526.228 99.1915 526.66 99.4129 527.121 99.4129H529.962C530.94 99.4129 531.886 99.88 532.592 100.73C532.943 101.148 533.223 101.652 533.414 102.211C533.606 102.771 533.706 103.373 533.707 103.983C533.706 104.593 533.606 105.195 533.414 105.755C533.223 106.314 532.943 106.818 532.592 107.236C531.882 108.085 530.94 108.556 529.962 108.553H529.575V113.777H527.509V108.553H527.079C526.343 108.516 525.631 108.212 525.028 107.677L524.185 106.923L525.376 104.79L526.219 105.543C526.484 105.778 526.806 105.92 527.146 105.942H529.962C530.423 105.942 530.856 105.722 531.167 105.346C531.477 104.973 531.64 104.481 531.64 103.983C531.64 103.485 531.477 102.993 531.167 102.62C530.841 102.234 530.41 102.021 529.962 102.024H527.121C526.143 102.028 525.202 101.556 524.491 100.708C524.14 100.289 523.861 99.785 523.669 99.2257C523.477 98.6664 523.377 98.0637 523.376 97.4542C523.376 96.221 523.784 95.0515 524.491 94.2008H524.493Z" fill="white"/>
<path d="M492.724 182.892H494.795V179.805C498.937 179.613 501.52 177.518 501.52 174.266C501.52 171.454 499.704 169.442 496.483 168.505L494.795 168.009V160.237C496.892 160.76 498.579 162.469 498.886 164.564H501.136C500.778 161.201 498.042 158.555 494.795 158.087V155H492.724V158.059C488.914 158.363 486.562 160.512 486.562 163.875C486.562 166.576 488.352 168.395 491.931 169.332L492.724 169.553V177.628C490.244 177.104 488.608 175.285 488.352 172.584H486C486.383 176.581 488.94 179.227 492.724 179.75V182.892ZM488.71 163.792C488.71 161.67 490.269 160.319 492.724 160.099V167.403C490.014 166.548 488.71 165.363 488.71 163.792ZM494.795 177.766V170.104L495.358 170.242C498.145 170.986 499.423 172.198 499.423 174.018C499.423 176.222 497.633 177.628 494.795 177.766ZM503.379 174.872H512.149V179.42H514.245V174.872H517.288V172.695H514.245V166.493H512.149V172.695H505.731L511.637 158.418H509.285L503.379 172.97V174.872ZM518.704 183.333H520.085L521.543 176.195H518.704V183.333ZM529.748 179.833C533.788 179.833 536.626 176.746 536.626 172.336C536.626 167.899 534.044 164.784 530.362 164.784C528.419 164.784 526.706 165.694 525.683 167.1L526.731 160.595H535.578V158.418H525.044L523.382 169.938L525.402 170.324C526.373 168.037 527.856 166.879 529.851 166.879C532.689 166.879 534.504 169.112 534.504 172.336C534.504 175.506 532.561 177.766 529.748 177.766C527.14 177.766 525.325 175.809 525.325 173.053H523.279C523.382 177.049 526.041 179.833 529.748 179.833ZM546.522 179.833C550.69 179.833 553.323 177.049 553.323 172.557C553.323 168.119 550.741 165.336 546.624 165.336C544.093 165.336 541.843 166.824 541.025 168.974C541.408 163.213 543.454 160.044 546.803 160.044C549.079 160.044 550.613 161.367 550.971 163.627H553.17C552.582 160.154 550.204 158.004 546.803 158.004C541.997 158.004 539.235 161.918 539.235 168.974C539.235 175.947 541.869 179.833 546.522 179.833ZM541.69 172.557C541.69 169.525 543.633 167.375 546.42 167.375C549.232 167.375 551.201 169.525 551.201 172.557C551.201 175.644 549.232 177.821 546.42 177.821C543.633 177.821 541.69 175.644 541.69 172.557ZM563.457 179.833C568.085 179.833 571 175.644 571 168.891C571 162.194 568.085 158.004 563.457 158.004C558.854 158.004 555.94 162.221 555.94 168.974C555.94 175.671 558.854 179.833 563.457 179.833ZM558.036 168.974C558.036 163.544 560.133 160.154 563.457 160.154C566.806 160.154 568.928 163.517 568.928 168.891C568.928 174.293 566.806 177.656 563.457 177.656C560.133 177.656 558.036 174.321 558.036 168.974ZM509.119 217.809H510.61L508.325 213.955C509.403 213.497 510.065 212.489 510.065 211.149C510.065 209.311 508.823 208.087 506.964 208.087H503.52V217.809H504.774V214.211H507.166L509.119 217.809ZM504.774 212.947V209.337H506.964C508.089 209.337 508.834 210.064 508.834 211.149C508.834 212.234 508.089 212.947 506.965 212.947H504.774ZM514.442 218C515.98 218 517.259 216.903 517.46 215.513H516.229C516.016 216.291 515.294 216.814 514.442 216.814C513.223 216.814 512.442 215.971 512.347 214.607H517.531V214.364C517.531 211.825 516.004 210.625 514.335 210.625C512.417 210.625 511.175 212.234 511.175 214.313C511.175 216.546 512.477 218 514.442 218ZM512.417 213.522C512.655 212.489 513.364 211.8 514.335 211.8C515.353 211.8 516.075 212.476 516.229 213.522H512.417ZM520.65 217.809H522.224L524.709 210.817H523.468L521.431 216.763L519.407 210.817H518.176L520.65 217.809ZM528.533 218C530.072 218 531.35 216.903 531.551 215.513H530.32C530.107 216.291 529.385 216.814 528.533 216.814C527.314 216.814 526.533 215.971 526.438 214.607H531.622V214.364C531.622 211.825 530.095 210.625 528.426 210.625C526.508 210.625 525.266 212.234 525.266 214.313C525.266 216.546 526.568 218 528.533 218ZM526.508 213.522C526.746 212.489 527.455 211.8 528.426 211.8C529.444 211.8 530.166 212.476 530.32 213.522H526.508ZM537.885 213.968V217.809H539.093V213.841C539.093 211.864 538.052 210.625 536.417 210.625C535.518 210.625 534.784 211.008 534.31 211.646V210.817H533.103V217.809H534.31V214.083C534.31 212.641 534.997 211.8 536.146 211.8C537.223 211.8 537.885 212.628 537.885 213.968ZM541.863 214.657V210.817H540.656V214.785C540.656 216.763 541.697 218 543.332 218C544.23 218 544.964 217.618 545.438 216.979V217.809H546.645V210.817H545.438V214.543C545.438 215.984 544.752 216.827 543.603 216.827C542.525 216.827 541.863 215.997 541.863 214.657ZM551.39 218C552.929 218 554.207 216.903 554.408 215.513H553.177C552.965 216.291 552.242 216.814 551.39 216.814C550.171 216.814 549.39 215.971 549.295 214.607H554.479V214.364C554.479 211.825 552.953 210.625 551.283 210.625C549.366 210.625 548.124 212.234 548.124 214.313C548.124 216.546 549.425 218 551.39 218ZM549.366 213.522C549.603 212.489 550.313 211.8 551.283 211.8C552.302 211.8 553.023 212.476 553.177 213.522H549.366Z" fill="white"/>
</g>
<path d="M7.748 350.729C6.552 350.729 5.47733 350.521 4.524 350.105C3.588 349.672 2.85133 349.082 2.314 348.337C1.77667 347.574 1.49933 346.699 1.482 345.711H4.004C4.09067 346.56 4.43733 347.28 5.044 347.869C5.668 348.441 6.56933 348.727 7.748 348.727C8.87467 348.727 9.75867 348.45 10.4 347.895C11.0587 347.323 11.388 346.595 11.388 345.711C11.388 345.018 11.1973 344.454 10.816 344.021C10.4347 343.588 9.958 343.258 9.386 343.033C8.814 342.808 8.04267 342.565 7.072 342.305C5.876 341.993 4.914 341.681 4.186 341.369C3.47533 341.057 2.86 340.572 2.34 339.913C1.83733 339.237 1.586 338.336 1.586 337.209C1.586 336.221 1.83733 335.346 2.34 334.583C2.84267 333.82 3.54467 333.231 4.446 332.815C5.36467 332.399 6.41333 332.191 7.592 332.191C9.29067 332.191 10.6773 332.616 11.752 333.465C12.844 334.314 13.4593 335.441 13.598 336.845H10.998C10.9113 336.152 10.5473 335.545 9.906 335.025C9.26467 334.488 8.41533 334.219 7.358 334.219C6.37 334.219 5.564 334.479 4.94 334.999C4.316 335.502 4.004 336.212 4.004 337.131C4.004 337.79 4.186 338.327 4.55 338.743C4.93133 339.159 5.39067 339.48 5.928 339.705C6.48267 339.913 7.254 340.156 8.242 340.433C9.438 340.762 10.4 341.092 11.128 341.421C11.856 341.733 12.48 342.227 13 342.903C13.52 343.562 13.78 344.463 13.78 345.607C13.78 346.491 13.546 347.323 13.078 348.103C12.61 348.883 11.9167 349.516 10.998 350.001C10.0793 350.486 8.996 350.729 7.748 350.729ZM29.9818 342.877C29.9818 343.328 29.9558 343.804 29.9038 344.307H18.5158C18.6024 345.711 19.0791 346.812 19.9458 347.609C20.8298 348.389 21.8958 348.779 23.1438 348.779C24.1664 348.779 25.0158 348.545 25.6918 348.077C26.3851 347.592 26.8704 346.95 27.1478 346.153H29.6958C29.3144 347.522 28.5518 348.64 27.4078 349.507C26.2638 350.356 24.8424 350.781 23.1438 350.781C21.7918 350.781 20.5784 350.478 19.5038 349.871C18.4464 349.264 17.6144 348.406 17.0078 347.297C16.4011 346.17 16.0978 344.87 16.0978 343.397C16.0978 341.924 16.3924 340.632 16.9818 339.523C17.5711 338.414 18.3944 337.564 19.4518 336.975C20.5264 336.368 21.7571 336.065 23.1438 336.065C24.4958 336.065 25.6918 336.36 26.7318 336.949C27.7718 337.538 28.5691 338.353 29.1238 339.393C29.6958 340.416 29.9818 341.577 29.9818 342.877ZM27.5378 342.383C27.5378 341.482 27.3384 340.71 26.9398 340.069C26.5411 339.41 25.9951 338.916 25.3018 338.587C24.6258 338.24 23.8718 338.067 23.0398 338.067C21.8438 338.067 20.8211 338.448 19.9718 339.211C19.1398 339.974 18.6631 341.031 18.5418 342.383H27.5378ZM35.1908 331.307V350.547H32.8248V331.307H35.1908ZM41.3093 331.307V350.547H38.9433V331.307H41.3093ZM54.0793 338.925C54.5473 338.11 55.2407 337.434 56.1593 336.897C57.0953 336.342 58.1787 336.065 59.4093 336.065C60.6747 336.065 61.8187 336.368 62.8413 336.975C63.8813 337.582 64.696 338.44 65.2853 339.549C65.8747 340.641 66.1693 341.915 66.1693 343.371C66.1693 344.81 65.8747 346.092 65.2853 347.219C64.696 348.346 63.8813 349.221 62.8413 349.845C61.8187 350.469 60.6747 350.781 59.4093 350.781C58.196 350.781 57.1213 350.512 56.1853 349.975C55.2667 349.42 54.5647 348.736 54.0793 347.921V357.307H51.7133V336.299H54.0793V338.925ZM63.7513 343.371C63.7513 342.296 63.5347 341.36 63.1013 340.563C62.668 339.766 62.0787 339.159 61.3333 338.743C60.6053 338.327 59.7993 338.119 58.9153 338.119C58.0487 338.119 57.2427 338.336 56.4973 338.769C55.7693 339.185 55.18 339.8 54.7293 340.615C54.296 341.412 54.0793 342.34 54.0793 343.397C54.0793 344.472 54.296 345.416 54.7293 346.231C55.18 347.028 55.7693 347.644 56.4973 348.077C57.2427 348.493 58.0487 348.701 58.9153 348.701C59.7993 348.701 60.6053 348.493 61.3333 348.077C62.0787 347.644 62.668 347.028 63.1013 346.231C63.5347 345.416 63.7513 344.463 63.7513 343.371ZM71.3696 338.613C71.7856 337.798 72.375 337.166 73.1376 336.715C73.9176 336.264 74.8623 336.039 75.9716 336.039V338.483H75.3476C72.6956 338.483 71.3696 339.922 71.3696 342.799V350.547H69.0036V336.299H71.3696V338.613ZM84.6369 350.781C83.3022 350.781 82.0889 350.478 80.9969 349.871C79.9222 349.264 79.0729 348.406 78.4489 347.297C77.8422 346.17 77.5389 344.87 77.5389 343.397C77.5389 341.941 77.8509 340.658 78.4749 339.549C79.1162 338.422 79.9829 337.564 81.0749 336.975C82.1669 336.368 83.3889 336.065 84.7409 336.065C86.0929 336.065 87.3149 336.368 88.4069 336.975C89.4989 337.564 90.3569 338.414 90.9809 339.523C91.6222 340.632 91.9429 341.924 91.9429 343.397C91.9429 344.87 91.6135 346.17 90.9549 347.297C90.3135 348.406 89.4382 349.264 88.3289 349.871C87.2195 350.478 85.9889 350.781 84.6369 350.781ZM84.6369 348.701C85.4862 348.701 86.2835 348.502 87.0289 348.103C87.7742 347.704 88.3722 347.106 88.8229 346.309C89.2909 345.512 89.5249 344.541 89.5249 343.397C89.5249 342.253 89.2995 341.282 88.8489 340.485C88.3982 339.688 87.8089 339.098 87.0809 338.717C86.3529 338.318 85.5642 338.119 84.7149 338.119C83.8482 338.119 83.0509 338.318 82.3229 338.717C81.6122 339.098 81.0402 339.688 80.6069 340.485C80.1735 341.282 79.9569 342.253 79.9569 343.397C79.9569 344.558 80.1649 345.538 80.5809 346.335C81.0142 347.132 81.5862 347.73 82.2969 348.129C83.0075 348.51 83.7875 348.701 84.6369 348.701ZM93.8897 343.371C93.8897 341.915 94.1844 340.641 94.7737 339.549C95.3631 338.44 96.1691 337.582 97.1917 336.975C98.2317 336.368 99.3931 336.065 100.676 336.065C101.785 336.065 102.816 336.325 103.77 336.845C104.723 337.348 105.451 338.015 105.954 338.847V331.307H108.346V350.547H105.954V347.869C105.486 348.718 104.792 349.42 103.874 349.975C102.955 350.512 101.88 350.781 100.65 350.781C99.3844 350.781 98.2317 350.469 97.1917 349.845C96.1691 349.221 95.3631 348.346 94.7737 347.219C94.1844 346.092 93.8897 344.81 93.8897 343.371ZM105.954 343.397C105.954 342.322 105.737 341.386 105.304 340.589C104.87 339.792 104.281 339.185 103.536 338.769C102.808 338.336 102.002 338.119 101.118 338.119C100.234 338.119 99.4277 338.327 98.6997 338.743C97.9717 339.159 97.3911 339.766 96.9577 340.563C96.5244 341.36 96.3077 342.296 96.3077 343.371C96.3077 344.463 96.5244 345.416 96.9577 346.231C97.3911 347.028 97.9717 347.644 98.6997 348.077C99.4277 348.493 100.234 348.701 101.118 348.701C102.002 348.701 102.808 348.493 103.536 348.077C104.281 347.644 104.87 347.028 105.304 346.231C105.737 345.416 105.954 344.472 105.954 343.397ZM124.7 336.299V350.547H122.334V348.441C121.883 349.169 121.251 349.741 120.436 350.157C119.639 350.556 118.755 350.755 117.784 350.755C116.675 350.755 115.678 350.53 114.794 350.079C113.91 349.611 113.208 348.918 112.688 347.999C112.185 347.08 111.934 345.962 111.934 344.645V336.299H114.274V344.333C114.274 345.737 114.629 346.82 115.34 347.583C116.051 348.328 117.021 348.701 118.252 348.701C119.517 348.701 120.514 348.311 121.242 347.531C121.97 346.751 122.334 345.616 122.334 344.125V336.299H124.7ZM127.531 343.397C127.531 341.924 127.826 340.641 128.415 339.549C129.004 338.44 129.819 337.582 130.859 336.975C131.916 336.368 133.121 336.065 134.473 336.065C136.224 336.065 137.662 336.49 138.789 337.339C139.933 338.188 140.687 339.367 141.051 340.875H138.503C138.26 340.008 137.784 339.324 137.073 338.821C136.38 338.318 135.513 338.067 134.473 338.067C133.121 338.067 132.029 338.535 131.197 339.471C130.365 340.39 129.949 341.698 129.949 343.397C129.949 345.113 130.365 346.439 131.197 347.375C132.029 348.311 133.121 348.779 134.473 348.779C135.513 348.779 136.38 348.536 137.073 348.051C137.766 347.566 138.243 346.872 138.503 345.971H141.051C140.67 347.427 139.907 348.597 138.763 349.481C137.619 350.348 136.189 350.781 134.473 350.781C133.121 350.781 131.916 350.478 130.859 349.871C129.819 349.264 129.004 348.406 128.415 347.297C127.826 346.188 127.531 344.888 127.531 343.397ZM146.814 338.249V346.647C146.814 347.34 146.961 347.834 147.256 348.129C147.551 348.406 148.062 348.545 148.79 348.545H150.532V350.547H148.4C147.083 350.547 146.095 350.244 145.436 349.637C144.777 349.03 144.448 348.034 144.448 346.647V338.249H142.602V336.299H144.448V332.711H146.814V336.299H150.532V338.249H146.814ZM158.163 350.781C157.071 350.781 156.091 350.599 155.225 350.235C154.358 349.854 153.673 349.334 153.171 348.675C152.668 347.999 152.391 347.228 152.339 346.361H154.783C154.852 347.072 155.181 347.652 155.771 348.103C156.377 348.554 157.166 348.779 158.137 348.779C159.038 348.779 159.749 348.58 160.269 348.181C160.789 347.782 161.049 347.28 161.049 346.673C161.049 346.049 160.771 345.59 160.217 345.295C159.662 344.983 158.804 344.68 157.643 344.385C156.585 344.108 155.719 343.83 155.043 343.553C154.384 343.258 153.812 342.834 153.327 342.279C152.859 341.707 152.625 340.962 152.625 340.043C152.625 339.315 152.841 338.648 153.275 338.041C153.708 337.434 154.323 336.958 155.121 336.611C155.918 336.247 156.828 336.065 157.851 336.065C159.428 336.065 160.702 336.464 161.673 337.261C162.643 338.058 163.163 339.15 163.233 340.537H160.867C160.815 339.792 160.511 339.194 159.957 338.743C159.419 338.292 158.691 338.067 157.773 338.067C156.923 338.067 156.247 338.249 155.745 338.613C155.242 338.977 154.991 339.454 154.991 340.043C154.991 340.511 155.138 340.901 155.433 341.213C155.745 341.508 156.126 341.75 156.577 341.941C157.045 342.114 157.686 342.314 158.501 342.539C159.523 342.816 160.355 343.094 160.997 343.371C161.638 343.631 162.184 344.03 162.635 344.567C163.103 345.104 163.345 345.806 163.363 346.673C163.363 347.453 163.146 348.155 162.713 348.779C162.279 349.403 161.664 349.897 160.867 350.261C160.087 350.608 159.185 350.781 158.163 350.781ZM172.19 343.371C172.19 341.915 172.485 340.641 173.074 339.549C173.664 338.44 174.47 337.582 175.492 336.975C176.532 336.368 177.685 336.065 178.95 336.065C180.198 336.065 181.282 336.334 182.2 336.871C183.119 337.408 183.804 338.084 184.254 338.899V336.299H186.646V350.547H184.254V347.895C183.786 348.727 183.084 349.42 182.148 349.975C181.23 350.512 180.155 350.781 178.924 350.781C177.659 350.781 176.515 350.469 175.492 349.845C174.47 349.221 173.664 348.346 173.074 347.219C172.485 346.092 172.19 344.81 172.19 343.371ZM184.254 343.397C184.254 342.322 184.038 341.386 183.604 340.589C183.171 339.792 182.582 339.185 181.836 338.769C181.108 338.336 180.302 338.119 179.418 338.119C178.534 338.119 177.728 338.327 177 338.743C176.272 339.159 175.692 339.766 175.258 340.563C174.825 341.36 174.608 342.296 174.608 343.371C174.608 344.463 174.825 345.416 175.258 346.231C175.692 347.028 176.272 347.644 177 348.077C177.728 348.493 178.534 348.701 179.418 348.701C180.302 348.701 181.108 348.493 181.836 348.077C182.582 347.644 183.171 347.028 183.604 346.231C184.038 345.416 184.254 344.472 184.254 343.397ZM197.307 336.039C199.04 336.039 200.444 336.568 201.519 337.625C202.593 338.665 203.131 340.173 203.131 342.149V350.547H200.791V342.487C200.791 341.066 200.435 339.982 199.725 339.237C199.014 338.474 198.043 338.093 196.813 338.093C195.565 338.093 194.568 338.483 193.823 339.263C193.095 340.043 192.731 341.178 192.731 342.669V350.547H190.365V336.299H192.731V338.327C193.199 337.599 193.831 337.036 194.629 336.637C195.443 336.238 196.336 336.039 197.307 336.039ZM205.831 343.371C205.831 341.915 206.126 340.641 206.715 339.549C207.305 338.44 208.111 337.582 209.133 336.975C210.173 336.368 211.335 336.065 212.617 336.065C213.727 336.065 214.758 336.325 215.711 336.845C216.665 337.348 217.393 338.015 217.895 338.847V331.307H220.287V350.547H217.895V347.869C217.427 348.718 216.734 349.42 215.815 349.975C214.897 350.512 213.822 350.781 212.591 350.781C211.326 350.781 210.173 350.469 209.133 349.845C208.111 349.221 207.305 348.346 206.715 347.219C206.126 346.092 205.831 344.81 205.831 343.371ZM217.895 343.397C217.895 342.322 217.679 341.386 217.245 340.589C216.812 339.792 216.223 339.185 215.477 338.769C214.749 338.336 213.943 338.119 213.059 338.119C212.175 338.119 211.369 338.327 210.641 338.743C209.913 339.159 209.333 339.766 208.899 340.563C208.466 341.36 208.249 342.296 208.249 343.371C208.249 344.463 208.466 345.416 208.899 346.231C209.333 347.028 209.913 347.644 210.641 348.077C211.369 348.493 212.175 348.701 213.059 348.701C213.943 348.701 214.749 348.493 215.477 348.077C216.223 347.644 216.812 347.028 217.245 346.231C217.679 345.416 217.895 344.472 217.895 343.397ZM229.773 343.397C229.773 341.924 230.068 340.641 230.657 339.549C231.247 338.44 232.061 337.582 233.101 336.975C234.159 336.368 235.363 336.065 236.715 336.065C238.466 336.065 239.905 336.49 241.031 337.339C242.175 338.188 242.929 339.367 243.293 340.875H240.745C240.503 340.008 240.026 339.324 239.315 338.821C238.622 338.318 237.755 338.067 236.715 338.067C235.363 338.067 234.271 338.535 233.439 339.471C232.607 340.39 232.191 341.698 232.191 343.397C232.191 345.113 232.607 346.439 233.439 347.375C234.271 348.311 235.363 348.779 236.715 348.779C237.755 348.779 238.622 348.536 239.315 348.051C240.009 347.566 240.485 346.872 240.745 345.971H243.293C242.912 347.427 242.149 348.597 241.005 349.481C239.861 350.348 238.431 350.781 236.715 350.781C235.363 350.781 234.159 350.478 233.101 349.871C232.061 349.264 231.247 348.406 230.657 347.297C230.068 346.188 229.773 344.888 229.773 343.397ZM252.384 350.781C251.05 350.781 249.836 350.478 248.744 349.871C247.67 349.264 246.82 348.406 246.196 347.297C245.59 346.17 245.286 344.87 245.286 343.397C245.286 341.941 245.598 340.658 246.222 339.549C246.864 338.422 247.73 337.564 248.822 336.975C249.914 336.368 251.136 336.065 252.488 336.065C253.84 336.065 255.062 336.368 256.154 336.975C257.246 337.564 258.104 338.414 258.728 339.523C259.37 340.632 259.69 341.924 259.69 343.397C259.69 344.87 259.361 346.17 258.702 347.297C258.061 348.406 257.186 349.264 256.076 349.871C254.967 350.478 253.736 350.781 252.384 350.781ZM252.384 348.701C253.234 348.701 254.031 348.502 254.776 348.103C255.522 347.704 256.12 347.106 256.57 346.309C257.038 345.512 257.272 344.541 257.272 343.397C257.272 342.253 257.047 341.282 256.596 340.485C256.146 339.688 255.556 339.098 254.828 338.717C254.1 338.318 253.312 338.119 252.462 338.119C251.596 338.119 250.798 338.318 250.07 338.717C249.36 339.098 248.788 339.688 248.354 340.485C247.921 341.282 247.704 342.253 247.704 343.397C247.704 344.558 247.912 345.538 248.328 346.335C248.762 347.132 249.334 347.73 250.044 348.129C250.755 348.51 251.535 348.701 252.384 348.701ZM264.887 331.307V350.547H262.521V331.307H264.887ZM271.006 331.307V350.547H268.64V331.307H271.006ZM287.758 342.877C287.758 343.328 287.732 343.804 287.68 344.307H276.292C276.379 345.711 276.855 346.812 277.722 347.609C278.606 348.389 279.672 348.779 280.92 348.779C281.943 348.779 282.792 348.545 283.468 348.077C284.161 347.592 284.647 346.95 284.924 346.153H287.472C287.091 347.522 286.328 348.64 285.184 349.507C284.04 350.356 282.619 350.781 280.92 350.781C279.568 350.781 278.355 350.478 277.28 349.871C276.223 349.264 275.391 348.406 274.784 347.297C274.177 346.17 273.874 344.87 273.874 343.397C273.874 341.924 274.169 340.632 274.758 339.523C275.347 338.414 276.171 337.564 277.228 336.975C278.303 336.368 279.533 336.065 280.92 336.065C282.272 336.065 283.468 336.36 284.508 336.949C285.548 337.538 286.345 338.353 286.9 339.393C287.472 340.416 287.758 341.577 287.758 342.877ZM285.314 342.383C285.314 341.482 285.115 340.71 284.716 340.069C284.317 339.41 283.771 338.916 283.078 338.587C282.402 338.24 281.648 338.067 280.816 338.067C279.62 338.067 278.597 338.448 277.748 339.211C276.916 339.974 276.439 341.031 276.318 342.383H285.314ZM289.717 343.397C289.717 341.924 290.012 340.641 290.601 339.549C291.19 338.44 292.005 337.582 293.045 336.975C294.102 336.368 295.307 336.065 296.659 336.065C298.41 336.065 299.848 336.49 300.975 337.339C302.119 338.188 302.873 339.367 303.237 340.875H300.689C300.446 340.008 299.97 339.324 299.259 338.821C298.566 338.318 297.699 338.067 296.659 338.067C295.307 338.067 294.215 338.535 293.383 339.471C292.551 340.39 292.135 341.698 292.135 343.397C292.135 345.113 292.551 346.439 293.383 347.375C294.215 348.311 295.307 348.779 296.659 348.779C297.699 348.779 298.566 348.536 299.259 348.051C299.952 347.566 300.429 346.872 300.689 345.971H303.237C302.856 347.427 302.093 348.597 300.949 349.481C299.805 350.348 298.375 350.781 296.659 350.781C295.307 350.781 294.102 350.478 293.045 349.871C292.005 349.264 291.19 348.406 290.601 347.297C290.012 346.188 289.717 344.888 289.717 343.397ZM309 338.249V346.647C309 347.34 309.147 347.834 309.442 348.129C309.737 348.406 310.248 348.545 310.976 348.545H312.718V350.547H310.586C309.269 350.547 308.281 350.244 307.622 349.637C306.963 349.03 306.634 348.034 306.634 346.647V338.249H304.788V336.299H306.634V332.711H309V336.299H312.718V338.249H309ZM324.322 338.925C324.79 338.11 325.484 337.434 326.402 336.897C327.338 336.342 328.422 336.065 329.652 336.065C330.918 336.065 332.062 336.368 333.084 336.975C334.124 337.582 334.939 338.44 335.528 339.549C336.118 340.641 336.412 341.915 336.412 343.371C336.412 344.81 336.118 346.092 335.528 347.219C334.939 348.346 334.124 349.221 333.084 349.845C332.062 350.469 330.918 350.781 329.652 350.781C328.439 350.781 327.364 350.512 326.428 349.975C325.51 349.42 324.808 348.736 324.322 347.921V357.307H321.956V336.299H324.322V338.925ZM333.994 343.371C333.994 342.296 333.778 341.36 333.344 340.563C332.911 339.766 332.322 339.159 331.576 338.743C330.848 338.327 330.042 338.119 329.158 338.119C328.292 338.119 327.486 338.336 326.74 338.769C326.012 339.185 325.423 339.8 324.972 340.615C324.539 341.412 324.322 342.34 324.322 343.397C324.322 344.472 324.539 345.416 324.972 346.231C325.423 347.028 326.012 347.644 326.74 348.077C327.486 348.493 328.292 348.701 329.158 348.701C330.042 348.701 330.848 348.493 331.576 348.077C332.322 347.644 332.911 347.028 333.344 346.231C333.778 345.416 333.994 344.463 333.994 343.371ZM338.363 343.371C338.363 341.915 338.657 340.641 339.247 339.549C339.836 338.44 340.642 337.582 341.665 336.975C342.705 336.368 343.857 336.065 345.123 336.065C346.371 336.065 347.454 336.334 348.373 336.871C349.291 337.408 349.976 338.084 350.427 338.899V336.299H352.819V350.547H350.427V347.895C349.959 348.727 349.257 349.42 348.321 349.975C347.402 350.512 346.327 350.781 345.097 350.781C343.831 350.781 342.687 350.469 341.665 349.845C340.642 349.221 339.836 348.346 339.247 347.219C338.657 346.092 338.363 344.81 338.363 343.371ZM350.427 343.397C350.427 342.322 350.21 341.386 349.777 340.589C349.343 339.792 348.754 339.185 348.009 338.769C347.281 338.336 346.475 338.119 345.591 338.119C344.707 338.119 343.901 338.327 343.173 338.743C342.445 339.159 341.864 339.766 341.431 340.563C340.997 341.36 340.781 342.296 340.781 343.371C340.781 344.463 340.997 345.416 341.431 346.231C341.864 347.028 342.445 347.644 343.173 348.077C343.901 348.493 344.707 348.701 345.591 348.701C346.475 348.701 347.281 348.493 348.009 348.077C348.754 347.644 349.343 347.028 349.777 346.231C350.21 345.416 350.427 344.472 350.427 343.397ZM368.809 336.299L360.229 357.255H357.785L360.593 350.391L354.847 336.299H357.473L361.945 347.843L366.365 336.299H368.809ZM388.041 336.039C389.151 336.039 390.139 336.273 391.005 336.741C391.872 337.192 392.557 337.876 393.059 338.795C393.562 339.714 393.813 340.832 393.813 342.149V350.547H391.473V342.487C391.473 341.066 391.118 339.982 390.407 339.237C389.714 338.474 388.769 338.093 387.573 338.093C386.343 338.093 385.363 338.492 384.635 339.289C383.907 340.069 383.543 341.204 383.543 342.695V350.547H381.203V342.487C381.203 341.066 380.848 339.982 380.137 339.237C379.444 338.474 378.499 338.093 377.303 338.093C376.073 338.093 375.093 338.492 374.365 339.289C373.637 340.069 373.273 341.204 373.273 342.695V350.547H370.907V336.299H373.273V338.353C373.741 337.608 374.365 337.036 375.145 336.637C375.943 336.238 376.818 336.039 377.771 336.039C378.967 336.039 380.025 336.308 380.943 336.845C381.862 337.382 382.547 338.171 382.997 339.211C383.396 338.206 384.055 337.426 384.973 336.871C385.892 336.316 386.915 336.039 388.041 336.039ZM410.415 342.877C410.415 343.328 410.389 343.804 410.337 344.307H398.949C399.035 345.711 399.512 346.812 400.379 347.609C401.263 348.389 402.329 348.779 403.577 348.779C404.599 348.779 405.449 348.545 406.125 348.077C406.818 347.592 407.303 346.95 407.581 346.153H410.129C409.747 347.522 408.985 348.64 407.841 349.507C406.697 350.356 405.275 350.781 403.577 350.781C402.225 350.781 401.011 350.478 399.937 349.871C398.879 349.264 398.047 348.406 397.441 347.297C396.834 346.17 396.531 344.87 396.531 343.397C396.531 341.924 396.825 340.632 397.415 339.523C398.004 338.414 398.827 337.564 399.885 336.975C400.959 336.368 402.19 336.065 403.577 336.065C404.929 336.065 406.125 336.36 407.165 336.949C408.205 337.538 409.002 338.353 409.557 339.393C410.129 340.416 410.415 341.577 410.415 342.877ZM407.971 342.383C407.971 341.482 407.771 340.71 407.373 340.069C406.974 339.41 406.428 338.916 405.735 338.587C405.059 338.24 404.305 338.067 403.473 338.067C402.277 338.067 401.254 338.448 400.405 339.211C399.573 339.974 399.096 341.031 398.975 342.383H407.971ZM420.2 336.039C421.933 336.039 423.337 336.568 424.412 337.625C425.486 338.665 426.024 340.173 426.024 342.149V350.547H423.684V342.487C423.684 341.066 423.328 339.982 422.618 339.237C421.907 338.474 420.936 338.093 419.706 338.093C418.458 338.093 417.461 338.483 416.716 339.263C415.988 340.043 415.624 341.178 415.624 342.669V350.547H413.258V336.299H415.624V338.327C416.092 337.599 416.724 337.036 417.522 336.637C418.336 336.238 419.229 336.039 420.2 336.039ZM432.494 338.249V346.647C432.494 347.34 432.642 347.834 432.936 348.129C433.231 348.406 433.742 348.545 434.47 348.545H436.212V350.547H434.08C432.763 350.547 431.775 350.244 431.116 349.637C430.458 349.03 430.128 348.034 430.128 346.647V338.249H428.282V336.299H430.128V332.711H432.494V336.299H436.212V338.249H432.494ZM443.843 350.781C442.751 350.781 441.772 350.599 440.905 350.235C440.038 349.854 439.354 349.334 438.851 348.675C438.348 347.999 438.071 347.228 438.019 346.361H440.463C440.532 347.072 440.862 347.652 441.451 348.103C442.058 348.554 442.846 348.779 443.817 348.779C444.718 348.779 445.429 348.58 445.949 348.181C446.469 347.782 446.729 347.28 446.729 346.673C446.729 346.049 446.452 345.59 445.897 345.295C445.342 344.983 444.484 344.68 443.323 344.385C442.266 344.108 441.399 343.83 440.723 343.553C440.064 343.258 439.492 342.834 439.007 342.279C438.539 341.707 438.305 340.962 438.305 340.043C438.305 339.315 438.522 338.648 438.955 338.041C439.388 337.434 440.004 336.958 440.801 336.611C441.598 336.247 442.508 336.065 443.531 336.065C445.108 336.065 446.382 336.464 447.353 337.261C448.324 338.058 448.844 339.15 448.913 340.537H446.547C446.495 339.792 446.192 339.194 445.637 338.743C445.1 338.292 444.372 338.067 443.453 338.067C442.604 338.067 441.928 338.249 441.425 338.613C440.922 338.977 440.671 339.454 440.671 340.043C440.671 340.511 440.818 340.901 441.113 341.213C441.425 341.508 441.806 341.75 442.257 341.941C442.725 342.114 443.366 342.314 444.181 342.539C445.204 342.816 446.036 343.094 446.677 343.371C447.318 343.631 447.864 344.03 448.315 344.567C448.783 345.104 449.026 345.806 449.043 346.673C449.043 347.453 448.826 348.155 448.393 348.779C447.96 349.403 447.344 349.897 446.547 350.261C445.767 350.608 444.866 350.781 443.843 350.781ZM452.857 350.703C452.406 350.703 452.025 350.547 451.713 350.235C451.401 349.923 451.245 349.542 451.245 349.091C451.245 348.64 451.401 348.259 451.713 347.947C452.025 347.635 452.406 347.479 452.857 347.479C453.29 347.479 453.654 347.635 453.949 347.947C454.261 348.259 454.417 348.64 454.417 349.091C454.417 349.542 454.261 349.923 453.949 350.235C453.654 350.547 453.29 350.703 452.857 350.703ZM466.3 332.425V350.547H463.934V332.425H466.3ZM472.938 338.249V346.647C472.938 347.34 473.086 347.834 473.38 348.129C473.675 348.406 474.186 348.545 474.914 348.545H476.656V350.547H474.524C473.207 350.547 472.219 350.244 471.56 349.637C470.902 349.03 470.572 348.034 470.572 346.647V338.249H468.726V336.299H470.572V332.711H472.938V336.299H476.656V338.249H472.938ZM479.607 332.425H482.233L479.737 338.327H478.073L479.607 332.425ZM489.694 350.781C488.602 350.781 487.623 350.599 486.756 350.235C485.89 349.854 485.205 349.334 484.702 348.675C484.2 347.999 483.922 347.228 483.87 346.361H486.314C486.384 347.072 486.713 347.652 487.302 348.103C487.909 348.554 488.698 348.779 489.668 348.779C490.57 348.779 491.28 348.58 491.8 348.181C492.32 347.782 492.58 347.28 492.58 346.673C492.58 346.049 492.303 345.59 491.748 345.295C491.194 344.983 490.336 344.68 489.174 344.385C488.117 344.108 487.25 343.83 486.574 343.553C485.916 343.258 485.344 342.834 484.858 342.279C484.39 341.707 484.156 340.962 484.156 340.043C484.156 339.315 484.373 338.648 484.806 338.041C485.24 337.434 485.855 336.958 486.652 336.611C487.45 336.247 488.36 336.065 489.382 336.065C490.96 336.065 492.234 336.464 493.204 337.261C494.175 338.058 494.695 339.15 494.764 340.537H492.398C492.346 339.792 492.043 339.194 491.488 338.743C490.951 338.292 490.223 338.067 489.304 338.067C488.455 338.067 487.779 338.249 487.276 338.613C486.774 338.977 486.522 339.454 486.522 340.043C486.522 340.511 486.67 340.901 486.964 341.213C487.276 341.508 487.658 341.75 488.108 341.941C488.576 342.114 489.218 342.314 490.032 342.539C491.055 342.816 491.887 343.094 492.528 343.371C493.17 343.631 493.716 344.03 494.166 344.567C494.634 345.104 494.877 345.806 494.894 346.673C494.894 347.453 494.678 348.155 494.244 348.779C493.811 349.403 493.196 349.897 492.398 350.261C491.618 350.608 490.717 350.781 489.694 350.781ZM19.136 373.039C20.2453 373.039 21.2333 373.273 22.1 373.741C22.9667 374.192 23.6513 374.876 24.154 375.795C24.6567 376.714 24.908 377.832 24.908 379.149V387.547H22.568V379.487C22.568 378.066 22.2127 376.982 21.502 376.237C20.8087 375.474 19.864 375.093 18.668 375.093C17.4373 375.093 16.458 375.492 15.73 376.289C15.002 377.069 14.638 378.204 14.638 379.695V387.547H12.298V379.487C12.298 378.066 11.9427 376.982 11.232 376.237C10.5387 375.474 9.594 375.093 8.398 375.093C7.16733 375.093 6.188 375.492 5.46 376.289C4.732 377.069 4.368 378.204 4.368 379.695V387.547H2.002V373.299H4.368V375.353C4.836 374.608 5.46 374.036 6.24 373.637C7.03733 373.238 7.91267 373.039 8.866 373.039C10.062 373.039 11.1193 373.308 12.038 373.845C12.9567 374.382 13.6413 375.171 14.092 376.211C14.4907 375.206 15.1493 374.426 16.068 373.871C16.9867 373.316 18.0093 373.039 19.136 373.039ZM34.7231 387.781C33.3884 387.781 32.1751 387.478 31.0831 386.871C30.0084 386.264 29.1591 385.406 28.5351 384.297C27.9284 383.17 27.6251 381.87 27.6251 380.397C27.6251 378.941 27.9371 377.658 28.5611 376.549C29.2024 375.422 30.0691 374.564 31.1611 373.975C32.2531 373.368 33.4751 373.065 34.8271 373.065C36.1791 373.065 37.4011 373.368 38.4931 373.975C39.5851 374.564 40.4431 375.414 41.0671 376.523C41.7084 377.632 42.0291 378.924 42.0291 380.397C42.0291 381.87 41.6998 383.17 41.0411 384.297C40.3998 385.406 39.5244 386.264 38.4151 386.871C37.3058 387.478 36.0751 387.781 34.7231 387.781ZM34.7231 385.701C35.5724 385.701 36.3698 385.502 37.1151 385.103C37.8604 384.704 38.4584 384.106 38.9091 383.309C39.3771 382.512 39.6111 381.541 39.6111 380.397C39.6111 379.253 39.3858 378.282 38.9351 377.485C38.4844 376.688 37.8951 376.098 37.1671 375.717C36.4391 375.318 35.6504 375.119 34.8011 375.119C33.9344 375.119 33.1371 375.318 32.4091 375.717C31.6984 376.098 31.1264 376.688 30.6931 377.485C30.2598 378.282 30.0431 379.253 30.0431 380.397C30.0431 381.558 30.2511 382.538 30.6671 383.335C31.1004 384.132 31.6724 384.73 32.3831 385.129C33.0938 385.51 33.8738 385.701 34.7231 385.701ZM51.802 373.039C53.5353 373.039 54.9393 373.568 56.014 374.625C57.0886 375.665 57.626 377.173 57.626 379.149V387.547H55.286V379.487C55.286 378.066 54.9306 376.982 54.22 376.237C53.5093 375.474 52.5386 375.093 51.308 375.093C50.06 375.093 49.0633 375.483 48.318 376.263C47.59 377.043 47.226 378.178 47.226 379.669V387.547H44.86V373.299H47.226V375.327C47.694 374.599 48.3266 374.036 49.124 373.637C49.9386 373.238 50.8313 373.039 51.802 373.039ZM74.2108 379.877C74.2108 380.328 74.1848 380.804 74.1328 381.307H62.7448C62.8315 382.711 63.3082 383.812 64.1748 384.609C65.0588 385.389 66.1248 385.779 67.3728 385.779C68.3955 385.779 69.2448 385.545 69.9208 385.077C70.6142 384.592 71.0995 383.95 71.3768 383.153H73.9248C73.5435 384.522 72.7808 385.64 71.6368 386.507C70.4928 387.356 69.0715 387.781 67.3728 387.781C66.0208 387.781 64.8075 387.478 63.7328 386.871C62.6755 386.264 61.8435 385.406 61.2368 384.297C60.6302 383.17 60.3268 381.87 60.3268 380.397C60.3268 378.924 60.6215 377.632 61.2108 376.523C61.8002 375.414 62.6235 374.564 63.6808 373.975C64.7555 373.368 65.9862 373.065 67.3728 373.065C68.7248 373.065 69.9208 373.36 70.9608 373.949C72.0008 374.538 72.7982 375.353 73.3528 376.393C73.9248 377.416 74.2108 378.577 74.2108 379.877ZM71.7668 379.383C71.7668 378.482 71.5675 377.71 71.1688 377.069C70.7702 376.41 70.2242 375.916 69.5308 375.587C68.8548 375.24 68.1008 375.067 67.2688 375.067C66.0728 375.067 65.0502 375.448 64.2008 376.211C63.3688 376.974 62.8922 378.031 62.7708 379.383H71.7668ZM79.9399 375.249V383.647C79.9399 384.34 80.0872 384.834 80.3819 385.129C80.6765 385.406 81.1879 385.545 81.9159 385.545H83.6579V387.547H81.5259C80.2085 387.547 79.2205 387.244 78.5619 386.637C77.9032 386.03 77.5739 385.034 77.5739 383.647V375.249H75.7279V373.299H77.5739V369.711H79.9399V373.299H83.6579V375.249H79.9399ZM87.4666 370.985C87.0159 370.985 86.6346 370.829 86.3226 370.517C86.0106 370.205 85.8546 369.824 85.8546 369.373C85.8546 368.922 86.0106 368.541 86.3226 368.229C86.6346 367.917 87.0159 367.761 87.4666 367.761C87.8999 367.761 88.2639 367.917 88.5586 368.229C88.8706 368.541 89.0266 368.922 89.0266 369.373C89.0266 369.824 88.8706 370.205 88.5586 370.517C88.2639 370.829 87.8999 370.985 87.4666 370.985ZM88.6106 373.299V387.547H86.2446V373.299H88.6106ZM94.131 385.597H101.125V387.547H91.427V385.597L98.343 375.223H91.479V373.299H101.073V375.223L94.131 385.597ZM103.031 380.371C103.031 378.915 103.326 377.641 103.915 376.549C104.504 375.44 105.31 374.582 106.333 373.975C107.373 373.368 108.526 373.065 109.791 373.065C111.039 373.065 112.122 373.334 113.041 373.871C113.96 374.408 114.644 375.084 115.095 375.899V373.299H117.487V387.547H115.095V384.895C114.627 385.727 113.925 386.42 112.989 386.975C112.07 387.512 110.996 387.781 109.765 387.781C108.5 387.781 107.356 387.469 106.333 386.845C105.31 386.221 104.504 385.346 103.915 384.219C103.326 383.092 103.031 381.81 103.031 380.371ZM115.095 380.397C115.095 379.322 114.878 378.386 114.445 377.589C114.012 376.792 113.422 376.185 112.677 375.769C111.949 375.336 111.143 375.119 110.259 375.119C109.375 375.119 108.569 375.327 107.841 375.743C107.113 376.159 106.532 376.766 106.099 377.563C105.666 378.36 105.449 379.296 105.449 380.371C105.449 381.463 105.666 382.416 106.099 383.231C106.532 384.028 107.113 384.644 107.841 385.077C108.569 385.493 109.375 385.701 110.259 385.701C111.143 385.701 111.949 385.493 112.677 385.077C113.422 384.644 114.012 384.028 114.445 383.231C114.878 382.416 115.095 381.472 115.095 380.397ZM124.091 375.249V383.647C124.091 384.34 124.239 384.834 124.533 385.129C124.828 385.406 125.339 385.545 126.067 385.545H127.809V387.547H125.677C124.36 387.547 123.372 387.244 122.713 386.637C122.055 386.03 121.725 385.034 121.725 383.647V375.249H119.879V373.299H121.725V369.711H124.091V373.299H127.809V375.249H124.091ZM131.618 370.985C131.167 370.985 130.786 370.829 130.474 370.517C130.162 370.205 130.006 369.824 130.006 369.373C130.006 368.922 130.162 368.541 130.474 368.229C130.786 367.917 131.167 367.761 131.618 367.761C132.051 367.761 132.415 367.917 132.71 368.229C133.022 368.541 133.178 368.922 133.178 369.373C133.178 369.824 133.022 370.205 132.71 370.517C132.415 370.829 132.051 370.985 131.618 370.985ZM132.762 373.299V387.547H130.396V373.299H132.762ZM142.728 387.781C141.394 387.781 140.18 387.478 139.088 386.871C138.014 386.264 137.164 385.406 136.54 384.297C135.934 383.17 135.63 381.87 135.63 380.397C135.63 378.941 135.942 377.658 136.566 376.549C137.208 375.422 138.074 374.564 139.166 373.975C140.258 373.368 141.48 373.065 142.832 373.065C144.184 373.065 145.406 373.368 146.498 373.975C147.59 374.564 148.448 375.414 149.072 376.523C149.714 377.632 150.034 378.924 150.034 380.397C150.034 381.87 149.705 383.17 149.046 384.297C148.405 385.406 147.53 386.264 146.42 386.871C145.311 387.478 144.08 387.781 142.728 387.781ZM142.728 385.701C143.578 385.701 144.375 385.502 145.12 385.103C145.866 384.704 146.464 384.106 146.914 383.309C147.382 382.512 147.616 381.541 147.616 380.397C147.616 379.253 147.391 378.282 146.94 377.485C146.49 376.688 145.9 376.098 145.172 375.717C144.444 375.318 143.656 375.119 142.806 375.119C141.94 375.119 141.142 375.318 140.414 375.717C139.704 376.098 139.132 376.688 138.698 377.485C138.265 378.282 138.048 379.253 138.048 380.397C138.048 381.558 138.256 382.538 138.672 383.335C139.106 384.132 139.678 384.73 140.388 385.129C141.099 385.51 141.879 385.701 142.728 385.701ZM159.807 373.039C161.541 373.039 162.945 373.568 164.019 374.625C165.094 375.665 165.631 377.173 165.631 379.149V387.547H163.291V379.487C163.291 378.066 162.936 376.982 162.225 376.237C161.515 375.474 160.544 375.093 159.313 375.093C158.065 375.093 157.069 375.483 156.323 376.263C155.595 377.043 155.231 378.178 155.231 379.669V387.547H152.865V373.299H155.231V375.327C155.699 374.599 156.332 374.036 157.129 373.637C157.944 373.238 158.837 373.039 159.807 373.039ZM193.002 373.039C194.111 373.039 195.099 373.273 195.966 373.741C196.833 374.192 197.517 374.876 198.02 375.795C198.523 376.714 198.774 377.832 198.774 379.149V387.547H196.434V379.487C196.434 378.066 196.079 376.982 195.368 376.237C194.675 375.474 193.73 375.093 192.534 375.093C191.303 375.093 190.324 375.492 189.596 376.289C188.868 377.069 188.504 378.204 188.504 379.695V387.547H186.164V379.487C186.164 378.066 185.809 376.982 185.098 376.237C184.405 375.474 183.46 375.093 182.264 375.093C181.033 375.093 180.054 375.492 179.326 376.289C178.598 377.069 178.234 378.204 178.234 379.695V387.547H175.868V373.299H178.234V375.353C178.702 374.608 179.326 374.036 180.106 373.637C180.903 373.238 181.779 373.039 182.732 373.039C183.928 373.039 184.985 373.308 185.904 373.845C186.823 374.382 187.507 375.171 187.958 376.211C188.357 375.206 189.015 374.426 189.934 373.871C190.853 373.316 191.875 373.039 193.002 373.039ZM201.491 380.371C201.491 378.915 201.786 377.641 202.375 376.549C202.964 375.44 203.77 374.582 204.793 373.975C205.833 373.368 206.986 373.065 208.251 373.065C209.499 373.065 210.582 373.334 211.501 373.871C212.42 374.408 213.104 375.084 213.555 375.899V373.299H215.947V387.547H213.555V384.895C213.087 385.727 212.385 386.42 211.449 386.975C210.53 387.512 209.456 387.781 208.225 387.781C206.96 387.781 205.816 387.469 204.793 386.845C203.77 386.221 202.964 385.346 202.375 384.219C201.786 383.092 201.491 381.81 201.491 380.371ZM213.555 380.397C213.555 379.322 213.338 378.386 212.905 377.589C212.472 376.792 211.882 376.185 211.137 375.769C210.409 375.336 209.603 375.119 208.719 375.119C207.835 375.119 207.029 375.327 206.301 375.743C205.573 376.159 204.992 376.766 204.559 377.563C204.126 378.36 203.909 379.296 203.909 380.371C203.909 381.463 204.126 382.416 204.559 383.231C204.992 384.028 205.573 384.644 206.301 385.077C207.029 385.493 207.835 385.701 208.719 385.701C209.603 385.701 210.409 385.493 211.137 385.077C211.882 384.644 212.472 384.028 212.905 383.231C213.338 382.416 213.555 381.472 213.555 380.397ZM218.781 380.371C218.781 378.915 219.076 377.641 219.665 376.549C220.255 375.44 221.061 374.582 222.083 373.975C223.123 373.368 224.285 373.065 225.567 373.065C226.677 373.065 227.708 373.325 228.661 373.845C229.615 374.348 230.343 375.015 230.845 375.847V368.307H233.237V387.547H230.845V384.869C230.377 385.718 229.684 386.42 228.765 386.975C227.847 387.512 226.772 387.781 225.541 387.781C224.276 387.781 223.123 387.469 222.083 386.845C221.061 386.221 220.255 385.346 219.665 384.219C219.076 383.092 218.781 381.81 218.781 380.371ZM230.845 380.397C230.845 379.322 230.629 378.386 230.195 377.589C229.762 376.792 229.173 376.185 228.427 375.769C227.699 375.336 226.893 375.119 226.009 375.119C225.125 375.119 224.319 375.327 223.591 375.743C222.863 376.159 222.283 376.766 221.849 377.563C221.416 378.36 221.199 379.296 221.199 380.371C221.199 381.463 221.416 382.416 221.849 383.231C222.283 384.028 222.863 384.644 223.591 385.077C224.319 385.493 225.125 385.701 226.009 385.701C226.893 385.701 227.699 385.493 228.427 385.077C229.173 384.644 229.762 384.028 230.195 383.231C230.629 382.416 230.845 381.472 230.845 380.397ZM249.956 379.877C249.956 380.328 249.93 380.804 249.878 381.307H238.49C238.576 382.711 239.053 383.812 239.92 384.609C240.804 385.389 241.87 385.779 243.118 385.779C244.14 385.779 244.99 385.545 245.666 385.077C246.359 384.592 246.844 383.95 247.122 383.153H249.67C249.288 384.522 248.526 385.64 247.382 386.507C246.238 387.356 244.816 387.781 243.118 387.781C241.766 387.781 240.552 387.478 239.478 386.871C238.42 386.264 237.588 385.406 236.982 384.297C236.375 383.17 236.072 381.87 236.072 380.397C236.072 378.924 236.366 377.632 236.956 376.523C237.545 375.414 238.368 374.564 239.426 373.975C240.5 373.368 241.731 373.065 243.118 373.065C244.47 373.065 245.666 373.36 246.706 373.949C247.746 374.538 248.543 375.353 249.098 376.393C249.67 377.416 249.956 378.577 249.956 379.877ZM247.512 379.383C247.512 378.482 247.312 377.71 246.914 377.069C246.515 376.41 245.969 375.916 245.276 375.587C244.6 375.24 243.846 375.067 243.014 375.067C241.818 375.067 240.795 375.448 239.946 376.211C239.114 376.974 238.637 378.031 238.516 379.383H247.512ZM264.494 387.781C263.402 387.781 262.423 387.599 261.556 387.235C260.69 386.854 260.005 386.334 259.502 385.675C259 384.999 258.722 384.228 258.67 383.361H261.114C261.184 384.072 261.513 384.652 262.102 385.103C262.709 385.554 263.498 385.779 264.468 385.779C265.37 385.779 266.08 385.58 266.6 385.181C267.12 384.782 267.38 384.28 267.38 383.673C267.38 383.049 267.103 382.59 266.548 382.295C265.994 381.983 265.136 381.68 263.974 381.385C262.917 381.108 262.05 380.83 261.374 380.553C260.716 380.258 260.144 379.834 259.658 379.279C259.19 378.707 258.956 377.962 258.956 377.043C258.956 376.315 259.173 375.648 259.606 375.041C260.04 374.434 260.655 373.958 261.452 373.611C262.25 373.247 263.16 373.065 264.182 373.065C265.76 373.065 267.034 373.464 268.004 374.261C268.975 375.058 269.495 376.15 269.564 377.537H267.198C267.146 376.792 266.843 376.194 266.288 375.743C265.751 375.292 265.023 375.067 264.104 375.067C263.255 375.067 262.579 375.249 262.076 375.613C261.574 375.977 261.322 376.454 261.322 377.043C261.322 377.511 261.47 377.901 261.764 378.213C262.076 378.508 262.458 378.75 262.908 378.941C263.376 379.114 264.018 379.314 264.832 379.539C265.855 379.816 266.687 380.094 267.328 380.371C267.97 380.631 268.516 381.03 268.966 381.567C269.434 382.104 269.677 382.806 269.694 383.673C269.694 384.453 269.478 385.155 269.044 385.779C268.611 386.403 267.996 386.897 267.198 387.261C266.418 387.608 265.517 387.781 264.494 387.781ZM273.976 370.985C273.526 370.985 273.144 370.829 272.832 370.517C272.52 370.205 272.364 369.824 272.364 369.373C272.364 368.922 272.52 368.541 272.832 368.229C273.144 367.917 273.526 367.761 273.976 367.761C274.41 367.761 274.774 367.917 275.068 368.229C275.38 368.541 275.536 368.922 275.536 369.373C275.536 369.824 275.38 370.205 275.068 370.517C274.774 370.829 274.41 370.985 273.976 370.985ZM275.12 373.299V387.547H272.754V373.299H275.12ZM296.007 373.039C297.116 373.039 298.104 373.273 298.971 373.741C299.837 374.192 300.522 374.876 301.025 375.795C301.527 376.714 301.779 377.832 301.779 379.149V387.547H299.439V379.487C299.439 378.066 299.083 376.982 298.373 376.237C297.679 375.474 296.735 375.093 295.539 375.093C294.308 375.093 293.329 375.492 292.601 376.289C291.873 377.069 291.509 378.204 291.509 379.695V387.547H289.169V379.487C289.169 378.066 288.813 376.982 288.103 376.237C287.409 375.474 286.465 375.093 285.269 375.093C284.038 375.093 283.059 375.492 282.331 376.289C281.603 377.069 281.239 378.204 281.239 379.695V387.547H278.873V373.299H281.239V375.353C281.707 374.608 282.331 374.036 283.111 373.637C283.908 373.238 284.783 373.039 285.737 373.039C286.933 373.039 287.99 373.308 288.909 373.845C289.827 374.382 290.512 375.171 290.963 376.211C291.361 375.206 292.02 374.426 292.939 373.871C293.857 373.316 294.88 373.039 296.007 373.039ZM307.746 375.925C308.214 375.11 308.907 374.434 309.826 373.897C310.762 373.342 311.845 373.065 313.076 373.065C314.341 373.065 315.485 373.368 316.508 373.975C317.548 374.582 318.362 375.44 318.952 376.549C319.541 377.641 319.836 378.915 319.836 380.371C319.836 381.81 319.541 383.092 318.952 384.219C318.362 385.346 317.548 386.221 316.508 386.845C315.485 387.469 314.341 387.781 313.076 387.781C311.862 387.781 310.788 387.512 309.852 386.975C308.933 386.42 308.231 385.736 307.746 384.921V394.307H305.38V373.299H307.746V375.925ZM317.418 380.371C317.418 379.296 317.201 378.36 316.768 377.563C316.334 376.766 315.745 376.159 315 375.743C314.272 375.327 313.466 375.119 312.582 375.119C311.715 375.119 310.909 375.336 310.164 375.769C309.436 376.185 308.846 376.8 308.396 377.615C307.962 378.412 307.746 379.34 307.746 380.397C307.746 381.472 307.962 382.416 308.396 383.231C308.846 384.028 309.436 384.644 310.164 385.077C310.909 385.493 311.715 385.701 312.582 385.701C313.466 385.701 314.272 385.493 315 385.077C315.745 384.644 316.334 384.028 316.768 383.231C317.201 382.416 317.418 381.463 317.418 380.371ZM325.036 368.307V387.547H322.67V368.307H325.036ZM341.789 379.877C341.789 380.328 341.763 380.804 341.711 381.307H330.323C330.409 382.711 330.886 383.812 331.753 384.609C332.637 385.389 333.703 385.779 334.951 385.779C335.973 385.779 336.823 385.545 337.499 385.077C338.192 384.592 338.677 383.95 338.955 383.153H341.503C341.121 384.522 340.359 385.64 339.215 386.507C338.071 387.356 336.649 387.781 334.951 387.781C333.599 387.781 332.385 387.478 331.311 386.871C330.253 386.264 329.421 385.406 328.815 384.297C328.208 383.17 327.905 381.87 327.905 380.397C327.905 378.924 328.199 377.632 328.789 376.523C329.378 375.414 330.201 374.564 331.259 373.975C332.333 373.368 333.564 373.065 334.951 373.065C336.303 373.065 337.499 373.36 338.539 373.949C339.579 374.538 340.376 375.353 340.931 376.393C341.503 377.416 341.789 378.577 341.789 379.877ZM339.345 379.383C339.345 378.482 339.145 377.71 338.747 377.069C338.348 376.41 337.802 375.916 337.109 375.587C336.433 375.24 335.679 375.067 334.847 375.067C333.651 375.067 332.628 375.448 331.779 376.211C330.947 376.974 330.47 378.031 330.349 379.383H339.345ZM345.386 387.703C344.935 387.703 344.554 387.547 344.242 387.235C343.93 386.923 343.774 386.542 343.774 386.091C343.774 385.64 343.93 385.259 344.242 384.947C344.554 384.635 344.935 384.479 345.386 384.479C345.819 384.479 346.183 384.635 346.478 384.947C346.79 385.259 346.946 385.64 346.946 386.091C346.946 386.542 346.79 386.923 346.478 387.235C346.183 387.547 345.819 387.703 345.386 387.703Z" fill="#1E2330"/>
<defs>
<clipPath id="clip0_61_484">
<rect width="132.954" height="215.579" fill="white" transform="translate(77.7026 43.8984)"/>
</clipPath>
<clipPath id="clip1_61_484">
<rect width="132.967" height="215.58" fill="white" transform="translate(173.739 43.8984)"/>
</clipPath>
<clipPath id="clip2_61_484">
<rect width="132.954" height="215.579" fill="white" transform="translate(269.788 43.8984)"/>
</clipPath>
<clipPath id="clip3_61_484">
<rect width="132.954" height="215.579" fill="white" transform="translate(365.824 43.8984)"/>
</clipPath>
<clipPath id="clip4_61_484">
<rect width="132.967" height="215.58" fill="white" transform="translate(461.861 43.8984)"/>
</clipPath>
</defs>
</svg>
