<svg width="125" height="35" viewBox="0 0 125 35" fill="none" xmlns="http://www.w3.org/2000/svg">
<g clip-path="url(#clip0_61_787)">
<path d="M25.203 11.073C24.9899 10.8659 24.6908 10.7718 24.3982 10.8199C24.105 10.8679 23.8518 11.0519 23.7158 11.316C23.2481 12.2247 22.6539 13.0598 21.9549 13.798C22.0246 13.2647 22.0597 12.7283 22.0597 12.1904C22.0597 11.1584 21.9214 10.0963 21.6484 9.03335C20.7511 5.54204 18.3979 2.58948 15.1926 0.932789C14.9136 0.788601 14.5811 0.793664 14.3065 0.946289C14.0319 1.09898 13.8521 1.37891 13.8275 1.69204C13.5776 4.86479 11.9434 7.75129 9.3413 9.61329C9.30687 9.6381 9.27268 9.66323 9.23849 9.68823C9.16768 9.74004 9.10093 9.78904 9.03856 9.83016C9.02881 9.83666 9.01912 9.84329 9.00962 9.8501C7.37312 11.0218 6.0228 12.5837 5.10449 14.3674C4.17137 16.1817 3.69824 18.1286 3.69824 20.1539C3.69824 21.1857 3.83655 22.2477 4.10937 23.3109C5.54905 28.9144 10.5918 32.828 16.3724 32.828C23.3606 32.828 29.0459 27.1424 29.0459 20.1539C29.0459 16.7077 27.6811 13.4827 25.203 11.073Z" fill="#28A263"/>
<circle cx="15.7579" cy="19.6519" r="3.76471" fill="white"/>
</g>
<path d="M118.371 10.8022V8.75063H117.735V8.29658H119.518V8.75063H118.892V10.8022H118.371ZM119.776 10.8022V8.29658H120.28L121.219 9.54101H120.983L121.895 8.29658H122.399V10.8022H121.878V8.87171L122.087 8.91879L121.121 10.1632H121.054L120.122 8.91879L120.297 8.87171V10.8022H119.776Z" fill="black"/>
<path d="M43.7862 29.6161C42.6662 29.6161 41.6102 29.4161 40.6182 29.0161C39.6422 28.6001 38.7942 28.0161 38.0742 27.2641C37.3702 26.5121 36.8422 25.6241 36.4902 24.6001L39.5382 23.2321C39.9862 24.2081 40.6022 24.9761 41.3862 25.5361C42.1862 26.0961 43.0662 26.3761 44.0262 26.3761C44.5382 26.3761 44.9782 26.2961 45.3462 26.1361C45.7142 25.9761 46.0022 25.7601 46.2102 25.4881C46.4182 25.2001 46.5222 24.8641 46.5222 24.4801C46.5222 24.0641 46.3942 23.7121 46.1382 23.4241C45.8822 23.1201 45.4822 22.8801 44.9382 22.7041L41.4342 21.5521C40.0102 21.0881 38.9382 20.4321 38.2182 19.5841C37.4982 18.7201 37.1382 17.6881 37.1382 16.4881C37.1382 15.4321 37.3942 14.5041 37.9062 13.7041C38.4342 12.9041 39.1622 12.2801 40.0902 11.8321C41.0342 11.3841 42.1142 11.1601 43.3302 11.1601C44.4022 11.1601 45.3942 11.3441 46.3062 11.7121C47.2182 12.0801 48.0022 12.6001 48.6582 13.2721C49.3302 13.9441 49.8342 14.7521 50.1702 15.6961L47.1462 17.0641C46.8102 16.2321 46.3062 15.5841 45.6342 15.1201C44.9622 14.6401 44.1942 14.4001 43.3302 14.4001C42.8342 14.4001 42.3942 14.4801 42.0102 14.6401C41.6262 14.8001 41.3302 15.0321 41.1222 15.3361C40.9142 15.6241 40.8102 15.9601 40.8102 16.3441C40.8102 16.7601 40.9462 17.1281 41.2182 17.4481C41.4902 17.7521 41.8982 17.9921 42.4422 18.1681L45.8742 19.2721C47.3142 19.7361 48.3862 20.3841 49.0902 21.2161C49.8102 22.0481 50.1702 23.0641 50.1702 24.2641C50.1702 25.3041 49.8982 26.2321 49.3542 27.0481C48.8102 27.8481 48.0582 28.4801 47.0982 28.9441C46.1542 29.3921 45.0502 29.6161 43.7862 29.6161ZM52.8213 29.3281V11.4481H59.6853C60.9173 11.4481 62.0053 11.6641 62.9493 12.0961C63.9093 12.5281 64.6613 13.1681 65.2053 14.0161C65.7493 14.8641 66.0213 15.9121 66.0213 17.1601C66.0213 18.3761 65.7413 19.4081 65.1813 20.2561C64.6373 21.1041 63.8853 21.7521 62.9253 22.2001C61.9813 22.6321 60.9013 22.8481 59.6853 22.8481H56.5413V29.3281H52.8213ZM56.5413 19.6081H59.7093C60.2373 19.6081 60.6933 19.5041 61.0773 19.2961C61.4613 19.0881 61.7573 18.8001 61.9653 18.4321C62.1893 18.0641 62.3013 17.6401 62.3013 17.1601C62.3013 16.6641 62.1893 16.2321 61.9653 15.8641C61.7573 15.4961 61.4613 15.2081 61.0773 15.0001C60.6933 14.7921 60.2373 14.6881 59.7093 14.6881H56.5413V19.6081ZM65.6576 29.3281L71.7056 11.4481H76.6496L82.6976 29.3281H78.6416L77.4416 25.6801H70.8896L69.6896 29.3281H65.6576ZM71.9216 22.4401H76.4096L73.6736 13.9921H74.6816L71.9216 22.4401ZM84.5557 29.3281V11.4481H91.3957C92.6277 11.4481 93.7157 11.6641 94.6597 12.0961C95.6197 12.5281 96.3717 13.1681 96.9157 14.0161C97.4597 14.8641 97.7317 15.9121 97.7317 17.1601C97.7317 18.3761 97.4517 19.4161 96.8917 20.2801C96.3317 21.1281 95.5797 21.7681 94.6357 22.2001L98.7157 29.3281H94.5397L90.1237 21.4321L92.5237 22.8481H88.2757V29.3281H84.5557ZM88.2757 19.6081H91.4197C91.9477 19.6081 92.4037 19.5041 92.7877 19.2961C93.1717 19.0881 93.4677 18.8001 93.6757 18.4321C93.8997 18.0641 94.0117 17.6401 94.0117 17.1601C94.0117 16.6641 93.8997 16.2321 93.6757 15.8641C93.4677 15.4961 93.1717 15.2081 92.7877 15.0001C92.4037 14.7921 91.9477 14.6881 91.4197 14.6881H88.2757V19.6081ZM100.563 29.3281V11.4481H104.283V20.4001L103.251 20.0401L110.403 11.4481H115.059L107.979 19.9921L108.195 17.3521L115.203 29.3281H110.859L106.491 21.7681L104.283 24.4321V29.3281H100.563Z" fill="black"/>
<defs>
<clipPath id="clip0_61_787">
<rect width="32" height="32" fill="white" transform="translate(0.698242 0.828125)"/>
</clipPath>
</defs>
</svg>
